<?xml version="1.0" encoding="UTF-8"?>
<!DOCTYPE svg PUBLIC "-//W3C//DTD SVG 1.1//EN" "http://www.w3.org/Graphics/SVG/1.1/DTD/svg11.dtd">
<!-- Creator: CorelDRAW -->
<svg xmlns="http://www.w3.org/2000/svg" xml:space="preserve" width="100%" height="100%" version="1.1" style="shape-rendering:geometricPrecision; text-rendering:geometricPrecision; image-rendering:optimizeQuality; fill-rule:evenodd; clip-rule:evenodd"
viewBox="0 0 954.03 1097.13"
 xmlns:xlink="http://www.w3.org/1999/xlink"
 xmlns:xodm="http://www.corel.com/coreldraw/odm/2003">
 <defs>
  <style type="text/css">
   <![CDATA[
    .fil0 {fill:none}
    .fil2 {fill:white;fill-rule:nonzero}
    .fil1 {fill:#FF6633;fill-rule:nonzero}
   ]]>
  </style>
 </defs>
 <g id="Capa_x0020_1">
  <metadata id="CorelCorpID_0Corel-Layer"/>
  <rect class="fil0" y="-0" width="954.03" height="1097.13"/>
  <path class="fil1" d="M759.2 554.65c-8.05,-11.7 -16.38,-23.22 -24.05,-35.16 -5.06,-7.87 -10.01,-9.66 -18.01,-3.62 -6.24,4.71 -13.37,8.43 -20.52,11.7 -9.85,4.5 -18.99,2.41 -26.37,-5.52 -7.38,-7.93 -8.54,-17.14 -3.74,-26.76 3.13,-6.26 6.37,-12.63 10.61,-18.15 6.53,-8.5 4.45,-13.93 -4.26,-18.83 -25.19,-14.18 -50.26,-28.58 -75.32,-42.99 -8.42,-4.84 -13.69,-2.43 -17.61,6.19 -3.07,6.75 -6.64,13.46 -11.09,19.35 -6.28,8.29 -14.92,12.25 -25.49,8.91 -10.84,-3.42 -16.62,-10.9 -16.8,-22.44 -0.01,-0.44 0.01,-0.88 0,-1.32 -0.86,-32.98 -0.85,-33.6 -34.22,-34.12 -23.65,-0.37 -47.32,1.29 -70.99,1.88 -8.39,0.21 -11.79,4.32 -11.23,12.49 0.48,7 1.04,14.03 0.8,21.02 -0.42,12.38 -6.69,20.87 -18.87,23.77 -11.96,2.85 -19.96,-3.14 -26.03,-13.04 -16.51,-26.93 -16.9,-27.41 -44.55,-11.83 -20.97,11.82 -40.96,25.37 -61.54,37.88 -7.38,4.49 -7.82,9.57 -3.36,16.36 4.33,6.59 8.65,13.26 12.15,20.3 4.73,9.51 3.83,18.84 -3.71,26.77 -7.96,8.37 -17.59,8.9 -27.88,5.08 -0.82,-0.3 -1.54,-0.83 -2.33,-1.22 -27.39,-13.91 -27.38,-13.9 -45.15,10.9 -1.19,1.67 -2.67,3.13 -4.21,4.91 -34.16,-61.28 -20.19,-131.97 33.19,-160.13 -1.84,7.65 -3.92,13.62 -4.62,19.75 -1.17,10.37 -2.97,21.01 -1.79,31.22 1.77,15.29 16.59,25.73 31.1,24.07 14.86,-1.7 25.39,-13.23 23.97,-29.3 -1.07,-12.05 -4.72,-24.01 -8.25,-35.69 -8.42,-27.85 -14.13,-55.82 -13.44,-85.3 1.78,-75.3 71.29,-122.12 121.07,-127.63 1.55,-0.17 3.18,0.33 3.8,0.41 -7.6,11.11 -17.29,21.19 -22.08,33.22 -7.7,19.33 -6.28,39.49 9.1,55.29 16.17,16.61 37.1,21.42 59.45,17.14 37.05,-7.09 55.49,-37.2 45.81,-76.34 -3.52,-14.22 -10.07,-28.13 -17.48,-40.88 -31.36,-53.95 -11.03,-96.53 33.22,-128.36 18.79,-13.52 34.55,-18.21 50.3,-18.07 -2.83,3.86 -4.83,6.81 -7.06,9.58 -24.6,30.64 -23.19,64.91 5,91.93 13.25,12.7 28.02,23.85 42.35,35.4 29.15,23.48 42.05,51.47 33.07,90.18 -4.93,21.26 -3.62,44.51 -1.88,66.61 1.63,20.76 15.12,33.59 32.34,36.76 21.28,3.92 38.3,-2.84 47.93,-19.03 10.63,-17.87 8.29,-44.91 -5.5,-61.86 -3.27,-4.03 -6.91,-7.75 -10.78,-12.05 42.8,3.23 72.7,33.66 73.62,68.33 0.67,25.26 -4.9,49.1 -15.95,71.2 -15.4,30.81 -12.77,58.13 7.7,85.95 11.56,15.7 19.04,34.43 28.1,51.92 1.9,3.68 2.7,7.93 4.01,11.91 -0.86,0.42 -1.71,0.84 -2.57,1.26z"/>
  <path class="fil2" d="M41.18 641.76c53.78,-4.3 107.56,-8.61 161.34,-12.91 0.44,-1.41 0.87,-2.82 1.31,-4.24 -6.48,-4.72 -12.59,-10.13 -19.56,-13.97 -6.49,-3.58 -7.84,-7.26 -4.24,-13.57 9.34,-16.35 18.61,-32.75 27.63,-49.29 3.93,-7.2 8.28,-6.71 15.03,-3.5 7.71,3.67 16.28,7.34 24.58,7.61 31.44,1.04 50.94,-30.06 37.52,-58.59 -8.88,-18.88 -9.01,-19.09 8.74,-30.32 11.1,-7.02 22.9,-12.95 33.93,-20.07 10.9,-7.04 17.57,-6.15 24.65,6.21 12.74,22.26 38.22,27.28 58.93,13.25 13.08,-8.86 19.03,-21.92 18.05,-37.26 -0.77,-12.03 4.47,-15.42 15.23,-15.28 15.78,0.21 31.58,0.1 47.35,-0.47 12.36,-0.45 17.54,3.49 17.73,17.2 0.43,30.99 28.14,51.08 54.47,39.31 9.61,-4.3 17.53,-13.96 24.21,-22.7 4.95,-6.47 8.6,-9.1 15.91,-4.88 15.56,8.98 31.12,17.97 46.89,26.57 8.32,4.55 6.85,9.35 3.89,17.17 -4,10.58 -8.36,22.99 -6.42,33.48 5.16,27.91 36.13,40.6 60.7,25.33 11.55,-7.18 17.49,-5.74 23.63,5.49 9.6,17.56 19.9,34.73 29.39,51.19 -11.26,9.43 -20.87,17.49 -30.49,25.54 0.73,1.8 1.45,3.6 2.17,5.4 55.84,4.49 111.67,8.97 167.51,13.46 -0.03,0.84 -0.06,1.69 -0.09,2.53 -28.43,0 -56.87,0.01 -85.3,0 -48.24,-0.01 -96.49,-0.35 -144.73,0.17 -11.03,0.12 -17.1,-3.05 -22.3,-13.34 -39.47,-78.25 -125.08,-123.78 -210.44,-110.09 -69.91,11.21 -121.1,50.12 -154.6,112.62 -2.53,4.72 -9.28,10.17 -14.1,10.21 -74.11,0.52 -148.23,0.21 -222.35,0.05 -2.06,-0 -4.13,-0.43 -6.19,-0.66 0.01,-0.55 0.01,-1.1 0.02,-1.65z"/>
  <path class="fil2" d="M900.96 835.97c-54.03,4.18 -108.06,8.35 -162.09,12.53 -0.63,1.16 -1.25,2.32 -1.88,3.48 6.04,4.8 11.49,10.8 18.27,14.1 8.83,4.3 9.13,9.17 4.85,16.63 -8.28,14.45 -16.77,28.81 -24.26,43.67 -5.22,10.36 -10.52,11.2 -20.54,5.49 -26.41,-15.05 -55.6,-2.7 -62.38,25.35 -3.12,12.9 0.44,24.51 7.78,34.85 5.43,7.65 4.03,12.35 -3.78,16.83 -15.21,8.71 -30.33,17.59 -45.15,26.92 -10.05,6.33 -15.87,5.53 -22.36,-5.93 -13.99,-24.71 -41.9,-29.33 -62.68,-11.94 -10.95,9.16 -15.36,21.29 -14.24,35.16 0.9,11.04 -4,14.99 -14.34,14.9 -17.55,-0.16 -35.1,-0.24 -52.64,0.25 -10.36,0.28 -13.46,-4.01 -13.38,-14.15 0.16,-21.41 -9.74,-36.37 -26.5,-42.74 -19.67,-7.47 -39.87,-0.1 -51.19,20.42 -5.72,10.35 -10.73,12.81 -21.09,6.06 -12.83,-8.36 -26.51,-15.44 -40,-22.74 -9.77,-5.29 -13.1,-10.63 -5.66,-21.45 10.46,-15.22 9.32,-31.71 -1.54,-46.63 -9.95,-13.66 -24.15,-18.77 -40.6,-15.69 -6.28,1.18 -12.74,3.92 -17.98,7.58 -7.85,5.47 -12.13,3.62 -16.5,-4.13 -9.05,-16.02 -18.65,-31.73 -28.14,-47.5 -3.89,-6.47 -3.01,-10.52 3.97,-14.81 8.24,-5.06 15.3,-12.05 22.87,-18.2 -0.51,-1.74 -1.01,-3.48 -1.52,-5.23 -56.34,-4.38 -112.68,-8.76 -169.02,-13.14 -0.05,-0.64 -0.11,-1.28 -0.17,-1.93 4.7,-0.22 9.4,-0.62 14.1,-0.63 71.08,-0.08 142.16,0 213.24,-0.29 8.91,-0.04 13.73,2.61 18.22,11.02 39.84,74.67 102.85,115.17 187.11,114.69 83.12,-0.48 145.06,-41.15 184.62,-114.64 3.63,-6.75 7.03,-11.08 15.63,-11.04 74.59,0.36 149.18,0.32 223.77,0.43 1.71,0 3.42,0.37 5.13,0.57l0.06 1.88z"/>
  <path class="fil2" d="M835.42 731.02c31.63,6.65 39.64,3.39 42.23,-16.67 -30.11,-6.04 -37.83,-3.16 -42.23,16.67zm35.04 34.45c2.11,6.61 5.39,16.84 9.34,29.16 -10.95,0 -20.04,0.57 -28.98,-0.33 -2.85,-0.29 -6.44,-4.05 -7.7,-7.05 -2.69,-6.41 -3.51,-13.6 -6.22,-20 -1.28,-3.02 -5.19,-6.95 -7.81,-6.88 -3.51,0.1 -7.39,3.21 -10.2,5.95 -2.02,1.97 -2.55,5.47 -3.73,8.3 -9.37,22.58 -11.47,23.66 -37.78,18.21 1.45,-4.54 2.53,-9.07 4.31,-13.3 11.73,-27.83 23.9,-55.47 35.27,-83.45 3.34,-8.21 8.07,-11.25 16.75,-11.06 21.01,0.47 42.04,-0.03 63.05,0.31 15.4,0.25 21.4,8.61 16.51,23.36 -3.3,9.94 -6.18,20.77 -12.36,28.8 -7.56,9.82 -18.37,17.15 -30.47,27.96z"/>
  <path class="fil2" d="M571.89 685.28c-6.52,27.4 -6.52,27.4 -30.34,27.43 -45.85,0.06 -45.86,0.05 -62.56,43.01 -1.08,2.78 -1.71,5.74 -2.54,8.57 22.62,9 40.41,3.73 44.15,-13.33 -5.43,-0.84 -10.82,-1.68 -16.13,-2.5 1.48,-18.81 5.09,-22.38 21.99,-22.45 11.31,-0.05 22.61,-0.01 37.58,-0.01 -10.62,22.88 -14.64,45.63 -31.18,62.16 -4.09,4.09 -11.83,6.07 -17.98,6.28 -21.46,0.75 -42.96,0.49 -64.44,0.23 -12.11,-0.15 -16.14,-5.35 -11.6,-16.88 9.64,-24.44 19.62,-48.81 30.9,-72.53 6.14,-12.91 17.45,-20.3 32.88,-20.08 22.69,0.34 45.4,0.09 69.27,0.09z"/>
  <path class="fil2" d="M205.14 767.18c13.9,0 24.65,0.29 35.38,-0.21 2.51,-0.12 6.11,-2.36 7.13,-4.58 7.25,-15.66 13.95,-31.56 21.77,-49.57 -13.48,0 -24.31,-0.27 -35.1,0.2 -2.59,0.11 -6.4,2.06 -7.39,4.21 -7.22,15.66 -13.86,31.58 -21.79,49.96zm10.53 27.62c-9.19,0.01 -18.39,0.28 -27.57,-0.06 -13.37,-0.49 -20.78,-8.4 -16.17,-20.53 9.62,-25.26 20.17,-50.35 32.91,-74.13 3.88,-7.24 15.82,-13.14 24.69,-14.11 19.02,-2.09 38.45,-1.01 57.68,-0.38 14.03,0.46 20.15,9.02 15.11,22.14 -8.62,22.43 -17.99,44.62 -28.11,66.41 -6.61,14.24 -18.49,21.64 -34.91,20.72 -7.86,-0.44 -15.75,-0.08 -23.63,-0.06z"/>
  <path class="fil2" d="M759.32 714.11c-36.19,-5.07 -45.91,1.02 -48.34,29.58 30.67,8.04 43.01,0.69 48.34,-29.58zm-30.33 81.06c3.01,-9.96 5.1,-16.87 8.01,-26.49 -12.39,0 -23.52,-0.65 -34.49,0.41 -3.11,0.3 -6.69,5.08 -8.45,8.61 -9.55,19.16 -12.7,20.68 -37.21,14.8 3.13,-7.78 6.09,-15.39 9.24,-22.92 8.29,-19.8 16.8,-39.49 24.95,-59.35 7.04,-17.15 18.01,-26.94 38.09,-25.34 16.55,1.32 33.29,-0.01 49.93,0.46 14.35,0.41 21.16,9.65 15.94,22.86 -10.61,26.87 -21.54,53.67 -33.78,79.83 -6.28,13.41 -19.33,4.49 -32.22,7.13z"/>
  <path class="fil2" d="M42.8 791.95c8.76,-21 17.42,-41.88 26.17,-62.73 3.56,-8.48 7.21,-16.93 11.03,-25.29 9.62,-21.06 11.68,-22 37.78,-16.95 -4.65,12.14 -9.21,24.04 -14.62,38.17 13.45,0 24.69,0.38 35.87,-0.28 2.64,-0.16 5.78,-3.37 7.43,-5.97 2.54,-4.03 3.95,-8.76 5.91,-13.16 10.53,-23.66 10.53,-23.65 38.6,-18.85 -1.49,4.17 -2.72,8.19 -4.34,12.04 -10.54,25.03 -21.14,50.03 -31.77,75.02 -9.98,23.46 -10.01,23.44 -38.54,19.19 4.84,-12.63 9.51,-24.82 15.35,-40.05 -13.74,0 -25.28,-0.5 -36.73,0.36 -2.83,0.21 -6.08,4.42 -7.82,7.54 -2.98,5.32 -4.86,11.24 -7.29,16.87 -8.03,18.65 -14.07,21.13 -37.04,14.09z"/>
  <path class="fil2" d="M687.41 685.35c-4.33,25.22 -6.8,27.42 -28.28,27.36 -10.53,-0.02 -21.07,0.36 -31.58,-0.08 -9.35,-0.39 -13.72,3.74 -14.32,14.98l47.81 0c-0.08,19.69 -4.21,24.07 -20.9,24.16 -10.09,0.05 -20.18,0.17 -30.27,0.02 -8.76,-0.13 -12.79,4.11 -12.85,14.89l54.19 0c0.38,21.14 -6.15,28.08 -24.43,28.1 -23.99,0.02 -47.98,0.01 -74.84,0.01 5.01,-12.61 8.79,-22.67 12.97,-32.56 9.56,-22.61 19.1,-45.23 29.22,-67.59 1.7,-3.75 6.17,-8.79 9.48,-8.87 27.53,-0.72 55.09,-0.41 83.79,-0.41z"/>
  <path class="fil2" d="M306.76 792.58c10.76,-25.81 21.41,-51.32 32.89,-78.87 -12.24,-0.65 -22.02,-1.17 -31.74,-1.69 0.18,-20.99 5.72,-26.85 24.6,-26.87 27.93,-0.03 55.86,-0.01 83.88,-0.01 -1.56,23.23 -6.13,28.48 -26.67,27.29 -13.42,-0.78 -20.86,3.2 -25.28,16.28 -5.46,16.13 -12.82,31.64 -19.57,47.33 -9,20.94 -11.9,22.23 -38.11,16.54z"/>
  <path class="fil1" d="M311.9 629.87c21.76,-47.84 87.35,-99.04 168.63,-94.49 61.52,3.44 132.03,47.37 149.84,96.99 -83.5,-107.64 -240.77,-101.9 -318.47,-2.49z"/>
  <path class="fil1" d="M628.93 848.74c-39.51,64.13 -96.1,96.22 -172.22,93.17 -56.95,-2.28 -126.63,-47.04 -145.68,-96.41 42.28,51.53 94.49,78.18 159.67,77.95 64.47,-0.23 116.61,-26.24 158.23,-74.71z"/>
 </g>
</svg>
